PathFileType	4	(X/Y/Z)	TVC_60_Cal_03_0_static_RCNL2025.trc
DataRate	CameraRate	NumFrames	NumMarkers	Units	OrigDataRate	OrigDataStartFrame	OrigNumFrames
100	100	4	27	mm	100	45	354
Frame#	Time	R_Shoulder			L_Shoulder			C7			J_Notch			R_Elbow			L_Elbow			R_Wrist			L_Wrist			R_Asis			L_Asis			R_Psis			L_Psis			Sacral			Thoracic			Sternum			R_Thigh_Lateral			R_Knee_Lateral			R_Shank_Lateral			R_Ankle_Lateral			R_Heel			R_Toe			L_Thigh_Lateral			L_Knee_Lateral			L_Shank_Lateral			L_Ankle_Lateral			L_Heel			L_Toe		
		X1	Y1	Z1	X2	Y2	Z2	X3	Y3	Z3	X4	Y4	Z4	X5	Y5	Z5	X6	Y6	Z6	X7	Y7	Z7	X8	Y8	Z8	X9	Y9	Z9	X10	Y10	Z10	X11	Y11	Z11	X12	Y12	Z12	X13	Y13	Z13	X14	Y14	Z14	X15	Y15	Z15	X16	Y16	Z16	X17	Y17	Z17	X18	Y18	Z18	X19	Y19	Z19	X20	Y20	Z20	X21	Y21	Z21	X22	Y22	Z22	X23	Y23	Z23	X24	Y24	Z24	X25	Y25	Z25	X26	Y26	Z26	X27	Y27	Z27
45	0.44000000	-267.130829	1351.791992	-55.321934	-245.894989	1362.935181	-397.793854	-286.014618	1421.972168	-239.653275	-194.443939	1283.933716	-225.879456	-337.462036	1015.023682	5.983031	-300.498077	1017.962402	-454.884094	-264.678810	793.848541	57.409857	-209.059021	802.852264	-484.051025	-212.824478	923.341614	-79.389893	-210.229980	915.853638	-362.562256	-390.500977	925.911377	-161.340149	-389.196533	925.864380	-271.460419	-389.848755	925.887878	-216.400284	-358.849579	1206.459839	-233.508804	-165.645721	1090.173096	-216.267990	-251.725418	607.057129	-11.078119	-260.456024	449.846130	-85.823128	-289.330688	234.032593	-45.070843	-330.095001	64.784996	-114.826538	-372.016449	57.728767	-163.952606	-200.063599	43.073059	-119.305717	-274.717346	633.349121	-413.679108	-261.931610	443.451080	-331.319794	-303.691437	254.673721	-360.168213	-333.750336	59.914764	-278.768738	-377.147858	61.054276	-235.476974	-205.703659	43.504761	-271.588745
46	0.45000000	-267.504761	1351.811035	-55.623886	-245.847580	1362.845947	-397.988495	-286.163971	1421.935913	-239.936859	-194.802124	1283.890381	-226.217239	-337.710541	1015.047485	5.620917	-300.211914	1017.889771	-455.237305	-264.927055	793.575500	57.025606	-208.881470	802.843689	-484.128174	-212.916809	923.281677	-79.592430	-209.927948	915.685608	-362.640472	-390.514648	925.826416	-161.679626	-389.017365	925.751465	-271.686981	-389.766006	925.788940	-216.683304	-358.957672	1206.457886	-233.832321	-165.322220	1090.394531	-216.000534	-251.871323	607.371460	-9.932304	-260.367432	449.812042	-85.963425	-289.273499	233.948471	-45.139645	-330.147430	64.824814	-114.876617	-372.143860	57.840286	-163.951630	-200.010178	43.048290	-119.313995	-274.561798	633.238281	-413.743103	-261.927124	443.347748	-331.577057	-303.695831	254.737854	-360.308350	-333.784698	59.935745	-278.707794	-377.208771	61.124878	-235.517990	-205.694290	43.475349	-271.625580
47	0.46000000	-267.956390	1351.869141	-55.829727	-245.726227	1362.823730	-398.172729	-286.455444	1422.100098	-240.263504	-194.772522	1284.021240	-225.909317	-337.961365	1015.018372	5.230349	-300.071381	1017.851379	-455.326080	-265.897415	793.401978	56.697294	-208.481010	802.676666	-484.243301	-212.886520	923.463318	-79.421127	-209.710297	915.717285	-362.692047	-390.567169	925.712646	-161.920654	-388.882599	925.642456	-271.955261	-389.724884	925.677551	-216.937958	-358.936890	1206.385132	-234.149078	-165.670853	1090.297607	-216.112854	-251.931519	607.383301	-10.172541	-260.064972	449.759705	-85.875511	-289.185760	234.044754	-45.233322	-330.214600	64.744370	-114.952194	-371.999512	57.668079	-164.032990	-200.125763	43.106121	-119.367126	-274.226715	633.187988	-413.931580	-261.871643	443.380310	-331.690552	-303.579041	254.654358	-360.293060	-333.850983	59.890118	-278.719360	-377.181366	60.943321	-235.516937	-205.713013	43.389587	-271.552704
48	0.47000000	-268.284821	1351.802002	-56.128876	-245.664886	1362.816406	-398.319519	-286.699890	1422.070801	-240.564453	-194.983978	1284.092163	-226.101944	-338.209229	1014.973938	4.789019	-299.781921	1017.852966	-455.598938	-266.505310	793.200317	56.192858	-208.360313	802.483307	-484.172729	-213.002441	923.445740	-79.679390	-209.619217	915.705872	-362.770630	-390.512817	925.575256	-162.266846	-388.692078	925.525635	-272.320374	-389.602448	925.550446	-217.293610	-359.022797	1206.317749	-234.409653	-165.588699	1090.433228	-216.141754	-251.252335	607.824646	-10.291516	-260.100006	449.665833	-86.234695	-289.210754	233.973038	-45.219036	-330.256409	64.708351	-114.926689	-371.923981	57.633488	-164.085999	-200.114349	43.013302	-119.367958	-274.049591	633.170776	-413.962311	-261.717499	443.309082	-331.773193	-303.599274	254.586105	-360.461731	-333.808838	59.836853	-278.786530	-377.154602	60.955429	-235.534958	-205.660767	43.453445	-271.639771
